<?xml version="1.0" encoding="UTF-8"?>
<svg id="Artwork" xmlns="http://www.w3.org/2000/svg" viewBox="0 0 1648.48 275.25">
  <defs>
    <style>
      .cls-blue {
        fill: #004ee3;
      }
      .cls-white {
        fill: #ffffff;
      }
    </style>
  </defs>
  <path class="cls-white" d="M1183.13,89.39h56.72v-47.68h-167.46s-51.32-.01-51.32-.01v30.95c0,30.07.45,58.34,1.35,84.81-7.93-15.3-16.75-31.24-26.47-47.81l-40.78-67.95h-56.99s-58.18,0-58.18,0l-11.93,21.42c-8.64,15.31-17.11,31.06-25.39,47.27-4.14-7.74-12.96-23.41-26.47-47l-12.47-21.69h-12.55,0s-70.18,0-70.18,0l-77.21,90.89-4.4,5.18V41.69h-57.35v191.86h57.35v-95.76l4.4,5.18,76.88,90.57h70.23s-81.31-95.77-81.31-95.77l53.42-62.92,51.56,85.22v73.47h54.02v-73.47l69.57-116.71v190.18h51.32v-31.27c0-29.89-.45-58.07-1.35-84.54,6.66,13.15,15.48,28.99,26.47,47.54l40.78,68.27h56.99V89.39h56.72v144.17h54.02V89.39Z"/>
  <path class="cls-white" d="M1573.11,188.51c-.54-12.78-2.66-22.6-6.35-29.44-3.69-6.84-10.4-12.06-20.12-15.67,9.72-4.32,17.15-10.44,22.28-18.37,5.13-7.92,7.7-16.83,7.7-26.74,0-16.56-5.76-30.25-17.29-41.05-11.71-10.62-29.8-15.54-54.29-15.54h-94.53s0,190.13,0,190.13l-70.14-190.14h-64.82s-68.34,191.86-68.34,191.86h55.1l8.1-25.05h75.36l8.1,25.05h110.65v-66.38h28.09c9,0,15.53,1.76,19.58,5.27,4.05,3.51,6.25,10.13,6.62,19.85l.81,21.88c.36,8.82,1.62,15.24,3.78,19.38h55.64c-2.88-5.04-4.5-11.46-4.86-19.38l-1.08-25.66ZM1307.69,89.12c1.08,4.86,4.14,15.04,9.18,30.52l14.32,44.3h-46.73l14.05-44.3c1.62-5.4,4.68-15.57,9.18-30.52ZM1496.94,127.74h-32.41v-44.3h32.41c16.02,0,24.04,7.39,24.04,22.15s-8.01,22.15-24.04,22.15Z"/>
  <rect class="cls-white" x="1594.43" y="41.69" width="54.02" height="191.86"/>
  <rect class="cls-blue" x="83.39" y="0" width="83.39" height="95.93"/>
  <rect class="cls-blue" x="83.39" y="179.32" width="83.39" height="95.93"/>
  <rect class="cls-blue" x="0" y="95.93" width="83.39" height="83.39"/>
  <polygon class="cls-white" points="458.69 179.32 458.69 95.93 303.51 95.93 384.94 0 283.72 0 166.79 137.78 283.47 275.25 384.67 275.25 303.37 179.45 303.37 179.32 458.69 179.32"/>
</svg>